<svg style="position:absolute;width:1px;height:1px;overflow:hidden" id="app-icons">
  <symbol id="icon-duel" viewBox="0 0 106 169">
    <path d="M53 168.76A52.08 52.08 0 0 1 .98 116.74 52.07 52.07 0 0 1 53 64.72a6.41 6.41 0 0 1 0 12.82c-21.61 0-39.19 17.58-39.19 39.19S31.39 155.92 53 155.92s39.19-17.58 39.19-39.19v-95.7a6.41 6.41 0 0 1 12.82 0v95.7a52.08 52.08 0 0 1-52.02 52.02zm0-17.82a34.24 34.24 0 0 1-34.2-34.2A34.24 34.24 0 0 1 53 82.54a6.41 6.41 0 0 1 0 12.82 21.4 21.4 0 0 0-21.37 21.37c0 11.79 9.59 21.38 21.37 21.38s21.38-9.59 21.38-21.38V6.78a6.41 6.41 0 0 1 12.82 0v109.95a34.24 34.24 0 0 1-34.2 34.2"/></path>
  </symbol>
  <symbol id="icon-three-dots" viewBox="0 0 20 20">
	<path d="M10.001 7.8a2.2 2.2 0 1 0 0 4.402A2.2 2.2 0 0 0 10 7.8zm-7 0a2.2 2.2 0 1 0 0 4.402A2.2 2.2 0 0 0 3 7.8zm14 0a2.2 2.2 0 1 0 0 4.402A2.2 2.2 0 0 0 17 7.8z"/></path>
  </symbol>
  <symbol id="icon-default-profile" viewBox="0 0 147 147">
	<path class="cls-2" d="M142,1a4,4,0,0,1,4,4V142a4,4,0,0,1-4,4H5a4,4,0,0,1-4-4V5A4,4,0,0,1,5,1H142m0-1H5A5,5,0,0,0,0,5V142a5,5,0,0,0,5,5H142a5,5,0,0,0,5-5V5a5,5,0,0,0-5-5Z"/><circle class="cls-3" cx="51.03" cy="55.38" r="12.33"/><circle class="cls-3" cx="95.98" cy="55.38" r="12.33"/><path class="cls-3" d="M98.83,88.73a1.43,1.43,0,0,1,1.45,1.49,26.82,26.82,0,0,1-53.56,0,1.43,1.43,0,0,1,1.45-1.49Z"/>
  </symbol>
</svg>
