<svg style="position:absolute;width:1px;height:1px;overflow:hidden" id="app-icons">
  <symbol id="icon-duel" viewBox="0 0 106 169">
    <path d="M53 168.76A52.08 52.08 0 0 1 .98 116.74 52.07 52.07 0 0 1 53 64.72a6.41 6.41 0 0 1 0 12.82c-21.61 0-39.19 17.58-39.19 39.19S31.39 155.92 53 155.92s39.19-17.58 39.19-39.19v-95.7a6.41 6.41 0 0 1 12.82 0v95.7a52.08 52.08 0 0 1-52.02 52.02zm0-17.82a34.24 34.24 0 0 1-34.2-34.2A34.24 34.24 0 0 1 53 82.54a6.41 6.41 0 0 1 0 12.82 21.4 21.4 0 0 0-21.37 21.37c0 11.79 9.59 21.38 21.37 21.38s21.38-9.59 21.38-21.38V6.78a6.41 6.41 0 0 1 12.82 0v109.95a34.24 34.24 0 0 1-34.2 34.2"/></path>
  </symbol>
  <symbol id="icon-three-dots" viewBox="0 0 20 20">
	<path d="M10.001 7.8a2.2 2.2 0 1 0 0 4.402A2.2 2.2 0 0 0 10 7.8zm-7 0a2.2 2.2 0 1 0 0 4.402A2.2 2.2 0 0 0 3 7.8zm14 0a2.2 2.2 0 1 0 0 4.402A2.2 2.2 0 0 0 17 7.8z"/></path>
  </symbol>
</svg>
