<svg style="position:absolute;width:1px;height:1px;overflow:hidden" id="app-icons">
  <symbol id="icon-duel" viewBox="0 0 106 169">
    <path d="M53 168.76A52.08 52.08 0 0 1 .98 116.74 52.07 52.07 0 0 1 53 64.72a6.41 6.41 0 0 1 0 12.82c-21.61 0-39.19 17.58-39.19 39.19S31.39 155.92 53 155.92s39.19-17.58 39.19-39.19v-95.7a6.41 6.41 0 0 1 12.82 0v95.7a52.08 52.08 0 0 1-52.02 52.02zm0-17.82a34.24 34.24 0 0 1-34.2-34.2A34.24 34.24 0 0 1 53 82.54a6.41 6.41 0 0 1 0 12.82 21.4 21.4 0 0 0-21.37 21.37c0 11.79 9.59 21.38 21.37 21.38s21.38-9.59 21.38-21.38V6.78a6.41 6.41 0 0 1 12.82 0v109.95a34.24 34.24 0 0 1-34.2 34.2"/>
  </symbol>
  <symbol id="icon-three-dots" viewBox="0 0 128 125">
	<path d="M63.994.152C28.66.152 0 28.806 0 64.158c0 28.272 18.336 52.26 43.768 60.726 3.2.586 4.37-1.392 4.37-3.084 0-1.52-.06-5.544-.092-10.888-17.8 3.87-21.56-8.576-21.56-8.576-2.906-7.394-7.102-9.364-7.102-9.364-5.812-3.972.44-3.888.44-3.888 6.424.452 9.8 6.592 9.8 6.592 5.712 9.784 14.984 6.96 18.63 5.32.58-4.14 2.234-6.96 4.06-8.56-14.21-1.612-29.15-7.104-29.15-31.63 0-6.984 2.494-12.7 6.588-17.172-.66-1.62-2.856-8.12.628-16.932 0 0 5.374-1.72 17.6 6.56 5.104-1.42 10.58-2.128 16.02-2.152 5.44.024 10.914.734 16.024 2.154 12.22-8.28 17.58-6.56 17.58-6.56 3.496 8.81 1.3 15.316.64 16.936 4.104 4.476 6.58 10.19 6.58 17.174 0 24.586-14.966 30-29.22 31.58 2.296 1.98 4.34 5.88 4.34 11.854 0 8.556-.076 15.46-.076 17.56 0 1.706 1.154 3.7 4.4 3.074C109.68 116.396 128 92.42 128 64.156 128 28.808 99.344.152 63.994.152z"/>
  </symbol>
</svg>
